<mxfile host="Electron" modified="2023-07-01T06:35:23.646Z" agent="Mozilla/5.0 (Windows NT 10.0; Win64; x64) AppleWebKit/537.36 (KHTML, like Gecko) draw.io/21.5.0 Chrome/112.0.5615.204 Electron/24.5.1 Safari/537.36" etag="z9TgPBcslPs61Htt5YhF" version="21.5.0" type="device">
  <diagram name="Page-1" id="xmsA9Ldza7TuJZ1E-JGx">
    <mxGraphModel dx="1373" dy="828" grid="1" gridSize="10" guides="1" tooltips="1" connect="1" arrows="1" fold="1" page="1" pageScale="1" pageWidth="850" pageHeight="1100" math="0" shadow="0">
      <root>
        <mxCell id="0" />
        <mxCell id="1" parent="0" />
        <mxCell id="Mgo_JTdueOPvGcjaS5bE-2" style="edgeStyle=orthogonalEdgeStyle;rounded=0;orthogonalLoop=1;jettySize=auto;html=1;" edge="1" parent="1" source="Mgo_JTdueOPvGcjaS5bE-1" target="Mgo_JTdueOPvGcjaS5bE-3">
          <mxGeometry relative="1" as="geometry">
            <mxPoint x="290" y="220" as="targetPoint" />
          </mxGeometry>
        </mxCell>
        <mxCell id="Mgo_JTdueOPvGcjaS5bE-1" value="start" style="ellipse;whiteSpace=wrap;html=1;" vertex="1" parent="1">
          <mxGeometry x="250" y="120" width="80" height="50" as="geometry" />
        </mxCell>
        <mxCell id="Mgo_JTdueOPvGcjaS5bE-4" style="edgeStyle=orthogonalEdgeStyle;rounded=0;orthogonalLoop=1;jettySize=auto;html=1;" edge="1" parent="1" source="Mgo_JTdueOPvGcjaS5bE-3" target="Mgo_JTdueOPvGcjaS5bE-5">
          <mxGeometry relative="1" as="geometry">
            <mxPoint x="290" y="340" as="targetPoint" />
          </mxGeometry>
        </mxCell>
        <mxCell id="Mgo_JTdueOPvGcjaS5bE-3" value="input pencarian" style="shape=parallelogram;perimeter=parallelogramPerimeter;whiteSpace=wrap;html=1;fixedSize=1;" vertex="1" parent="1">
          <mxGeometry x="230" y="220" width="120" height="60" as="geometry" />
        </mxCell>
        <mxCell id="Mgo_JTdueOPvGcjaS5bE-6" style="edgeStyle=orthogonalEdgeStyle;rounded=0;orthogonalLoop=1;jettySize=auto;html=1;" edge="1" parent="1" source="Mgo_JTdueOPvGcjaS5bE-5" target="Mgo_JTdueOPvGcjaS5bE-7">
          <mxGeometry relative="1" as="geometry">
            <mxPoint x="290" y="480" as="targetPoint" />
          </mxGeometry>
        </mxCell>
        <mxCell id="Mgo_JTdueOPvGcjaS5bE-5" value="buka koneksi&lt;br&gt;Database" style="shape=cylinder3;whiteSpace=wrap;html=1;boundedLbl=1;backgroundOutline=1;size=15;" vertex="1" parent="1">
          <mxGeometry x="260" y="330" width="60" height="80" as="geometry" />
        </mxCell>
        <mxCell id="Mgo_JTdueOPvGcjaS5bE-8" style="edgeStyle=orthogonalEdgeStyle;rounded=0;orthogonalLoop=1;jettySize=auto;html=1;" edge="1" parent="1" source="Mgo_JTdueOPvGcjaS5bE-7" target="Mgo_JTdueOPvGcjaS5bE-9">
          <mxGeometry relative="1" as="geometry">
            <mxPoint x="290" y="580" as="targetPoint" />
          </mxGeometry>
        </mxCell>
        <mxCell id="Mgo_JTdueOPvGcjaS5bE-7" value="search, get data" style="rounded=0;whiteSpace=wrap;html=1;" vertex="1" parent="1">
          <mxGeometry x="230" y="450" width="120" height="60" as="geometry" />
        </mxCell>
        <mxCell id="Mgo_JTdueOPvGcjaS5bE-10" style="edgeStyle=orthogonalEdgeStyle;rounded=0;orthogonalLoop=1;jettySize=auto;html=1;" edge="1" parent="1" source="Mgo_JTdueOPvGcjaS5bE-9" target="Mgo_JTdueOPvGcjaS5bE-11">
          <mxGeometry relative="1" as="geometry">
            <mxPoint x="290" y="680" as="targetPoint" />
          </mxGeometry>
        </mxCell>
        <mxCell id="Mgo_JTdueOPvGcjaS5bE-9" value="tampilkan data" style="shape=parallelogram;perimeter=parallelogramPerimeter;whiteSpace=wrap;html=1;fixedSize=1;" vertex="1" parent="1">
          <mxGeometry x="230" y="550" width="120" height="60" as="geometry" />
        </mxCell>
        <mxCell id="Mgo_JTdueOPvGcjaS5bE-12" style="edgeStyle=orthogonalEdgeStyle;rounded=0;orthogonalLoop=1;jettySize=auto;html=1;" edge="1" parent="1" source="Mgo_JTdueOPvGcjaS5bE-11" target="Mgo_JTdueOPvGcjaS5bE-13">
          <mxGeometry relative="1" as="geometry">
            <mxPoint x="290" y="780" as="targetPoint" />
          </mxGeometry>
        </mxCell>
        <mxCell id="Mgo_JTdueOPvGcjaS5bE-11" value="tutup koneksi&lt;br&gt;databse" style="shape=cylinder3;whiteSpace=wrap;html=1;boundedLbl=1;backgroundOutline=1;size=15;" vertex="1" parent="1">
          <mxGeometry x="260" y="640" width="60" height="80" as="geometry" />
        </mxCell>
        <mxCell id="Mgo_JTdueOPvGcjaS5bE-13" value="end" style="ellipse;whiteSpace=wrap;html=1;" vertex="1" parent="1">
          <mxGeometry x="245" y="770" width="90" height="40" as="geometry" />
        </mxCell>
      </root>
    </mxGraphModel>
  </diagram>
</mxfile>
